<svg width="20" height="20" viewBox="0 0 20 20" fill="none" xmlns="http://www.w3.org/2000/svg">
<path d="M11.6666 1.89124V5.33335C11.6666 5.80006 11.6666 6.03342 11.7574 6.21168C11.8373 6.36848 11.9648 6.49596 12.1216 6.57586C12.2999 6.66669 12.5332 6.66669 12.9999 6.66669H16.442M13.3333 10.8333H6.66659M13.3333 14.1666H6.66659M8.33325 7.49996H6.66659M11.6666 1.66663H7.33325C5.93312 1.66663 5.23306 1.66663 4.69828 1.93911C4.22787 2.17879 3.84542 2.56124 3.60574 3.03165C3.33325 3.56643 3.33325 4.26649 3.33325 5.66663V14.3333C3.33325 15.7334 3.33325 16.4335 3.60574 16.9683C3.84542 17.4387 4.22787 17.8211 4.69828 18.0608C5.23306 18.3333 5.93312 18.3333 7.33325 18.3333H12.6666C14.0667 18.3333 14.7668 18.3333 15.3016 18.0608C15.772 17.8211 16.1544 17.4387 16.3941 16.9683C16.6666 16.4335 16.6666 15.7334 16.6666 14.3333V6.66663L11.6666 1.66663Z" stroke="#19191A" stroke-width="1.6" stroke-linecap="round" stroke-linejoin="round"/>
</svg>
