<svg width="20" height="20" viewBox="0 0 20 20" fill="none" xmlns="http://www.w3.org/2000/svg">
<path d="M11.6666 9.16675H6.66659M8.33325 12.5001H6.66659M13.3333 5.83341H6.66659M16.6666 8.75008V5.66675C16.6666 4.26662 16.6666 3.56655 16.3941 3.03177C16.1544 2.56137 15.772 2.17892 15.3016 1.93923C14.7668 1.66675 14.0667 1.66675 12.6666 1.66675H7.33325C5.93312 1.66675 5.23306 1.66675 4.69828 1.93923C4.22787 2.17892 3.84542 2.56137 3.60574 3.03177C3.33325 3.56655 3.33325 4.26662 3.33325 5.66675V14.3334C3.33325 15.7335 3.33325 16.4336 3.60574 16.9684C3.84542 17.4388 4.22787 17.8212 4.69828 18.0609C5.23306 18.3334 5.93312 18.3334 7.33325 18.3334H9.58325M18.3333 18.3334L17.0833 17.0834M17.9166 15.0001C17.9166 16.6109 16.6107 17.9167 14.9999 17.9167C13.3891 17.9167 12.0833 16.6109 12.0833 15.0001C12.0833 13.3893 13.3891 12.0834 14.9999 12.0834C16.6107 12.0834 17.9166 13.3893 17.9166 15.0001Z" stroke="#19191A" stroke-width="1.6" stroke-linecap="round" stroke-linejoin="round"/>
</svg>
