<svg width="20" height="20" viewBox="0 0 20 20" fill="none" xmlns="http://www.w3.org/2000/svg">
<g clip-path="url(#clip0_6508_676)">
<path d="M10.0001 1.66675C12.5001 3.33341 13.269 6.91011 13.3334 10.0001C13.269 13.0901 12.5001 16.6667 10.0001 18.3334M10.0001 1.66675C7.50008 3.33342 6.73112 6.91011 6.66675 10.0001C6.73112 13.0901 7.50008 16.6667 10.0001 18.3334M10.0001 1.66675C5.39771 1.66675 1.66675 5.39771 1.66675 10.0001M10.0001 1.66675C14.6025 1.66675 18.3334 5.39771 18.3334 10.0001M10.0001 18.3334C14.6025 18.3334 18.3334 14.6025 18.3334 10.0001M10.0001 18.3334C5.39771 18.3334 1.66675 14.6025 1.66675 10.0001M18.3334 10.0001C16.6667 12.5001 13.0901 13.269 10.0001 13.3334C6.91011 13.269 3.33341 12.5001 1.66675 10.0001M18.3334 10.0001C16.6667 7.50008 13.0901 6.73112 10.0001 6.66675C6.91011 6.73112 3.33341 7.50008 1.66675 10.0001" stroke="#19191A" stroke-width="1.6" stroke-linecap="round" stroke-linejoin="round"/>
</g>
<defs>
<clipPath id="clip0_6508_676">
<rect width="20" height="20" fill="white"/>
</clipPath>
</defs>
</svg>
