<svg width="20" height="20" viewBox="0 0 20 20" fill="none" xmlns="http://www.w3.org/2000/svg">
<path d="M14.1666 9.16667V6.66667C14.1666 4.36548 12.3011 2.5 9.99992 2.5C7.69873 2.5 5.83325 4.36548 5.83325 6.66667V9.16667M7.33325 17.5H12.6666C14.0667 17.5 14.7668 17.5 15.3016 17.2275C15.772 16.9878 16.1544 16.6054 16.3941 16.135C16.6666 15.6002 16.6666 14.9001 16.6666 13.5V13.1667C16.6666 11.7665 16.6666 11.0665 16.3941 10.5317C16.1544 10.0613 15.772 9.67883 15.3016 9.43915C14.7668 9.16667 14.0667 9.16667 12.6666 9.16667H7.33325C5.93312 9.16667 5.23306 9.16667 4.69828 9.43915C4.22787 9.67883 3.84542 10.0613 3.60574 10.5317C3.33325 11.0665 3.33325 11.7665 3.33325 13.1667V13.5C3.33325 14.9001 3.33325 15.6002 3.60574 16.135C3.84542 16.6054 4.22787 16.9878 4.69828 17.2275C5.23306 17.5 5.93312 17.5 7.33325 17.5Z" stroke="#19191A" stroke-width="1.6" stroke-linecap="round" stroke-linejoin="round"/>
</svg>
