<svg width="20" height="20" viewBox="0 0 20 20" fill="none" xmlns="http://www.w3.org/2000/svg">
<g clip-path="url(#clip0_6508_629)">
<path d="M17.6749 13.2416C17.1448 14.4954 16.3156 15.6002 15.2598 16.4594C14.2041 17.3186 12.9539 17.9062 11.6186 18.1706C10.2833 18.4351 8.90362 18.3684 7.60005 17.9765C6.29649 17.5845 5.10878 16.8792 4.14078 15.9222C3.17277 14.9652 2.45394 13.7856 2.04712 12.4866C1.64031 11.1876 1.5579 9.80872 1.80709 8.4705C2.05629 7.13229 2.62951 5.8755 3.47663 4.81C4.32376 3.7445 5.419 2.90274 6.6666 2.35831M17.6989 6.81095C18.0325 7.61633 18.2372 8.46778 18.3066 9.33401C18.3238 9.54801 18.3323 9.65501 18.2899 9.7514C18.2544 9.83191 18.184 9.9081 18.1066 9.94992C18.0139 9.99998 17.8982 9.99998 17.6666 9.99998H10.6666C10.4332 9.99998 10.3166 9.99998 10.2274 9.95456C10.149 9.91462 10.0853 9.85087 10.0453 9.77247C9.99993 9.68334 9.99993 9.56667 9.99993 9.33331V2.33331C9.99993 2.10175 9.99993 1.98598 10.05 1.8933C10.0918 1.81588 10.168 1.74555 10.2485 1.71005C10.3449 1.66756 10.4519 1.67614 10.6659 1.6933C11.5321 1.76274 12.3836 1.96738 13.189 2.30098C14.2 2.71977 15.1187 3.3336 15.8925 4.10742C16.6663 4.88124 17.2801 5.7999 17.6989 6.81095Z" stroke="#19191A" stroke-width="1.6" stroke-linecap="round" stroke-linejoin="round"/>
</g>
<defs>
<clipPath id="clip0_6508_629">
<rect width="20" height="20" fill="white"/>
</clipPath>
</defs>
</svg>
